# xmcd
#
# Track frame offsets:
#	150
#	12121
#	22832
#	36515
#	48114
#	59312
#	69794
#	79371
#	93806
#	107538
#	119104
#	132117
#	146415
#	159688
#	173250
#	185319
#	198989
#	213504
#	228045
#	240924
#
# Disc length: 3391
#
# Revision: 1
# Processed by: cddbd v1.5.1PL0 Copyright (c) Steve Scherf et al.
# Submitted via: CDex 1.51
# Normalized: r0:TDELIM( - )
#
DISCID=f50d3d14
DTITLE=Various Artist - Swingtime 10
DYEAR=2003
DGENRE=Jazz
TTITLE0=Count Basie - Jive at five - 19390203-04
TTITLE1=Don Byas - They say it's wonderful - 19460821
TTITLE2=Coleman Hawkins - How strange
TTITLE3=Earl "Fatha" Hines - Piano man - 19390712
TTITLE4=Benny Goodman - Goody goody - 19360124
TTITLE5=Harry James - Little white lies - 19380427
TTITLE6=Erroll Garner - Indiana - 19501007
TTITLE7=Coleman Hawkins - Angel face - 19471211
TTITLE8=Buck Clayton - I know that you know - 19380318
TTITLE9=Benny Carter - I'm in the mood for swing - 19370111-16
TTITLE10=Fats Waller - Sweet Sue, just you - 19350624
TTITLE11=Lionel Hampton - Pinetop's boogie woogie - 19460121
TTITLE12=Johnny Hodges - Jeep's blues - 19510228
TTITLE13=Charly Barnet - Skyliner - 19440803
TTITLE14=Bobby Hackett - Clarinet marmalade - 19400125
TTITLE15=Edmond Hall - I can't believe that you're in love with me - 19440505
TTITLE16=Glenn Miller - When that man is dead and gone - 19410219
TTITLE17=Tommy Dorsey - On the sunny side of the street - 19441114
TTITLE18=Teddy Wilson - Sailin' - 19361119
TTITLE19=Count Basie - Basie strides again (along Avenue C) - 19440527
EXTD=YEAR: 2003
EXTT0=
EXTT1=
EXTT2=
EXTT3=
EXTT4=
EXTT5=
EXTT6=
EXTT7=
EXTT8=
EXTT9=
EXTT10=
EXTT11=
EXTT12=
EXTT13=
EXTT14=
EXTT15=
EXTT16=
EXTT17=
EXTT18=
EXTT19=
PLAYORDER=
